<?xml version="1.0" standalone="no"?><!DOCTYPE svg PUBLIC "-//W3C//DTD SVG 1.1//EN" "http://www.w3.org/Graphics/SVG/1.1/DTD/svg11.dtd"><svg t="1577865356547" class="icon" viewBox="0 0 1025 1024" version="1.1" xmlns="http://www.w3.org/2000/svg" p-id="2092" xmlns:xlink="http://www.w3.org/1999/xlink" width="48.046875" height="48"><defs><style type="text/css"></style></defs><path d="M512 93.098667a418.901333 418.901333 0 1 0 0 837.802666c231.367111 0 418.901333-187.534222 418.901333-418.901333S743.367111 93.098667 512 93.098667zM0 512C0 229.262222 229.262222 0 512 0s512 229.262222 512 512-229.262222 512-512 512S0 794.737778 0 512z" fill="#000000" p-id="2093"></path><path d="M269.994667 499.086222a23.125333 23.125333 0 1 0 32.654222 32.711111 23.125333 23.125333 0 0 0-32.654222-32.711111zM204.515556 597.191111a115.569778 115.569778 0 0 1 51.825777-193.422222 115.655111 115.655111 0 0 1 141.653334 141.596444 115.626667 115.626667 0 0 1-193.479111 51.825778z m294.343111 130.730667a23.125333 23.125333 0 1 0 32.711111 32.711111 23.125333 23.125333 0 0 0-32.711111-32.711111z m-65.422223 98.076444a115.541333 115.541333 0 0 1 51.683556-193.792 115.541333 115.541333 0 0 1 111.502222 193.422222 115.655111 115.655111 0 0 1-163.185778 0.369778z m294.343112-326.912a23.125333 23.125333 0 1 0 32.682666 32.711111 23.125333 23.125333 0 0 0-32.682666-32.711111z m-65.422223 98.104889a115.569778 115.569778 0 0 1 51.854223-193.422222 115.569778 115.569778 0 0 1 111.701333 193.422222 115.683556 115.683556 0 0 1-163.555556 0zM498.915556 270.279111a23.125333 23.125333 0 1 0 32.711111 32.682667 23.125333 23.125333 0 0 0-32.711111-32.711111z m-65.422223 98.048a115.541333 115.541333 0 0 1 51.683556-193.763555 115.541333 115.541333 0 0 1 111.502222 193.422222 115.655111 115.655111 0 0 1-163.185778 0.341333z m35.555556 609.450667c0-25.543111 20.679111-46.250667 46.222222-46.250667h462.506667a46.250667 46.250667 0 1 1 0 92.472889h-462.506667a46.250667 46.250667 0 0 1-46.250667-46.222222z" fill="#000000" p-id="2094"></path></svg>